#N canvas 551 73 458 506 10;
#X obj 159 23 bng 15 250 50 0 empty empty empty 0 -6 0 8 -262144 -1
-1;
#X text 175 22 Carregar um sample;
#N canvas 0 22 450 300 (subpatch) 0;
#X array meuSom 138805 float 0;
#X coords 0 1.02 138804 -1.02 200 130 1 0 0;
#X restore 159 103 graph;
#X floatatom 46 75 0 0 0 0 - - -;
#X obj 46 21 loadbang;
#X msg 46 48 1;
#N canvas 435 336 665 578 sampler 0;
#X obj 94 35 inlet;
#X obj 222 337 +~ 1;
#X obj 94 313 -~ 0.5;
#X obj 94 364 cos~;
#X obj 94 396 *~;
#X obj 94 249 phasor~;
#X obj 94 338 *~ 0.5;
#X obj 222 311 *~;
#X obj 222 363 tabread4~ meuSom;
#X obj 237 89 expr size("meuSom");
#X obj 109 188 /;
#X obj 109 128 t b f;
#X msg 109 156 1;
#X obj 94 223 *;
#X obj 94 81 * 44100;
#X obj 300 40 samplerate~;
#X obj 237 7 r refresh;
#X obj 94 484 outlet~;
#X obj 94 434 hip~ 5;
#X connect 0 0 14 0;
#X connect 1 0 8 0;
#X connect 2 0 6 0;
#X connect 3 0 4 0;
#X connect 4 0 18 0;
#X connect 5 0 2 0;
#X connect 5 0 7 0;
#X connect 6 0 3 0;
#X connect 7 0 1 0;
#X connect 8 0 4 1;
#X connect 9 0 7 1;
#X connect 9 0 11 0;
#X connect 10 0 13 1;
#X connect 11 0 12 0;
#X connect 11 1 10 1;
#X connect 12 0 10 0;
#X connect 13 0 5 0;
#X connect 14 0 13 0;
#X connect 15 0 14 1;
#X connect 16 0 15 0;
#X connect 16 0 9 0;
#X connect 16 0 14 0;
#X connect 18 0 17 0;
#X restore 46 111 pd sampler;
#N canvas 640 245 450 300 carregaFicheiro 0;
#X obj 30 37 inlet;
#X obj 30 69 openpanel;
#X obj 57 173 soundfiler;
#X msg 57 148 read -resize \$1 meuSom;
#X obj 30 122 s refresh;
#X obj 30 96 t b a;
#X connect 0 0 1 0;
#X connect 1 0 5 0;
#X connect 3 0 2 0;
#X connect 5 0 4 0;
#X connect 5 1 3 0;
#X restore 159 57 pd carregaFicheiro;
#X text -79 74 FREQUÊNCIA (Hz)--->;
#X obj 109 229 +~ 1;
#X obj 109 138 tgl 15 0 empty empty empty 17 7 0 10 -262144 -1 -1 1
1;
#X obj 46 191 spigot~ 2 1;
#X obj 174 361 vu 15 120 empty empty -1 -8 0 10 -66577 -1 1 0;
#N canvas 632 293 164 404 snapshot 0;
#X obj -18 61 tgl 15 0 empty empty empty 17 7 0 10 -262144 -1 -1 1
1;
#X obj -18 377 outlet;
#X obj 59 108 inlet~;
#X obj -18 9 loadbang;
#X msg -18 32 1;
#X obj -18 95 metro 50;
#X obj -18 163 snapshot~;
#X obj -18 266 t b f;
#X msg -18 290 100;
#X obj -18 317 -;
#X obj -18 346 * -1;
#X obj -18 192 expr abs($f1);
#X obj -18 222 rmstodb;
#X connect 0 0 5 0;
#X connect 2 0 6 0;
#X connect 3 0 4 0;
#X connect 4 0 0 0;
#X connect 5 0 6 0;
#X connect 6 0 11 0;
#X connect 7 0 8 0;
#X connect 7 1 9 1;
#X connect 8 0 9 0;
#X connect 9 0 10 0;
#X connect 10 0 1 0;
#X connect 11 0 12 0;
#X connect 12 0 7 0;
#X restore 173 328 pd snapshot;
#X obj 109 256 *~ 0.5;
#X obj -70 315 tgl 15 0 empty empty empty 17 7 0 10 -262144 -1 -1 0
1;
#X text -53 314 out1;
#X obj -26 315 tgl 15 0 empty empty empty 17 7 0 10 -262144 -1 -1 0
1;
#X obj -22 345 tgl 15 0 empty empty empty 17 7 0 10 -262144 -1 -1 0
1;
#X obj 22 345 tgl 15 0 empty empty empty 17 7 0 10 -262144 -1 -1 0
1;
#X obj 26 375 tgl 15 0 empty empty empty 17 7 0 10 -262144 -1 -1 1
1;
#X obj 69 375 tgl 15 0 empty empty empty 17 7 0 10 -262144 -1 -1 0
1;
#X text -9 314 out2;
#X text -5 344 out3;
#X text 39 344 out4;
#X text 43 374 out5;
#X text 86 374 out6;
#N canvas 128 212 467 305 PlacaDeSom 0;
#X obj 10 239 dac~ 1 2 3 4 5 6;
#X obj 12 135 spigot~;
#X obj 71 135 spigot~;
#X obj 124 135 spigot~;
#X obj 177 135 spigot~;
#X obj 236 135 spigot~;
#X obj 289 135 spigot~;
#X obj 18 14 inlet;
#X obj 60 14 inlet;
#X obj 100 14 inlet;
#X obj 142 14 inlet;
#X obj 187 14 inlet;
#X obj 229 14 inlet;
#X obj 382 15 inlet~;
#X connect 1 1 0 0;
#X connect 2 1 0 1;
#X connect 3 1 0 2;
#X connect 4 1 0 3;
#X connect 5 1 0 4;
#X connect 6 1 0 5;
#X connect 7 0 1 1;
#X connect 8 0 2 1;
#X connect 9 0 3 1;
#X connect 10 0 4 1;
#X connect 11 0 5 1;
#X connect 12 0 6 1;
#X connect 13 0 1 0;
#X connect 13 0 2 0;
#X connect 13 0 3 0;
#X connect 13 0 4 0;
#X connect 13 0 5 0;
#X connect 13 0 6 0;
#X coords 0 -1 1 1 185 60 1 100 100;
#X restore -69 406 pd PlacaDeSom;
#X obj 163 270 hsl 128 15 0 127 0 0 empty empty empty -2 -8 0 10 -262144
-1 -1 12700 1;
#X text 295 270 volume;
#N canvas 4 22 242 285 volume 0;
#X obj 46 28 inlet~;
#X obj 46 205 outlet~;
#X obj 100 28 inlet;
#X obj 100 62 / 127;
#X obj 46 156 *~;
#X obj 100 90 pack 0 50;
#X obj 100 118 line~;
#X connect 0 0 4 0;
#X connect 2 0 3 0;
#X connect 3 0 5 0;
#X connect 4 0 1 0;
#X connect 5 0 6 0;
#X connect 6 0 4 1;
#X restore 109 296 pd volume;
#X connect 0 0 7 0;
#X connect 3 0 6 0;
#X connect 4 0 5 0;
#X connect 5 0 3 0;
#X connect 6 0 11 0;
#X connect 9 0 14 0;
#X connect 10 0 11 1;
#X connect 11 0 30 0;
#X connect 11 1 9 0;
#X connect 13 0 12 0;
#X connect 14 0 30 0;
#X connect 15 0 27 0;
#X connect 17 0 27 1;
#X connect 18 0 27 2;
#X connect 19 0 27 3;
#X connect 20 0 27 4;
#X connect 21 0 27 5;
#X connect 28 0 30 1;
#X connect 30 0 27 6;
#X connect 30 0 13 0;
