#N canvas 355 223 328 190 10;
#X text 17 8 Calculadora bit shift;
#X obj 31 118 <<;
#X floatatom 31 60 5 0 0 0 - - -;
#X floatatom 87 61 5 0 0 0 - - -;
#X text 57 119 multilpicações;
#X floatatom 31 146 5 0 0 0 - - -;
#X floatatom 185 60 5 0 0 0 - - -;
#X floatatom 241 61 5 0 0 0 - - -;
#X floatatom 185 146 5 0 0 0 - - -;
#X obj 185 118 >>;
#X text 211 119 divisões;
#X obj 87 84 t b;
#X obj 241 86 t b;
#X connect 1 0 5 0;
#X connect 2 0 1 0;
#X connect 3 0 1 1;
#X connect 3 0 11 0;
#X connect 6 0 9 0;
#X connect 7 0 9 1;
#X connect 7 0 12 0;
#X connect 9 0 8 0;
#X connect 11 0 1 0;
#X connect 12 0 9 0;
